<?xml version="1.0" encoding="utf-8"?>
<!-- Generator: Adobe Illustrator 28.2.0, SVG Export Plug-In . SVG Version: 6.00 Build 0)  -->
<svg version="1.1" id="Artwork" xmlns="http://www.w3.org/2000/svg" xmlns:xlink="http://www.w3.org/1999/xlink" x="0px" y="0px"
	 width="543.411px" height="103.6px" viewBox="0 0 543.411 103.6" style="enable-background:new 0 0 543.411 103.6;"
	 xml:space="preserve">
<style type="text/css">
	.st0{fill:#FFFFFF;}
</style>
<g>
	<g>
		<polygon class="st0" points="238.179,25.903 221.981,84.47 221.721,84.47 203.173,25.903 202.776,25.903 191.157,25.903 
			173.183,84.47 172.922,84.47 154.897,25.903 143.282,25.903 142.882,25.903 124.386,84.47 124.125,84.47 107.929,25.903 
			94.606,25.903 117.595,101.293 130.081,101.293 148.785,44.345 149.044,44.345 166.835,101.293 179.326,101.293 197.061,44.345 
			197.321,44.345 216.078,101.293 228.565,101.293 251.554,25.903 		"/>
		<g>
			<path class="st0" d="M256.148,25.903h32.863c8.115,0,15.028,1.48,20.741,4.44c5.712,2.961,10.083,7.228,13.114,12.8
				c3.029,5.573,4.545,12.33,4.545,20.271v0.105c0,7.906-1.516,14.689-4.545,20.35c-3.031,5.66-7.402,9.979-13.114,12.957
				c-5.713,2.978-12.626,4.467-20.741,4.467h-32.863V25.903z M288.123,91c5.781,0,10.666-1.053,14.655-3.16
				c3.987-2.107,7.026-5.199,9.116-9.273c2.09-4.076,3.135-9.057,3.135-14.943V63.52c0-5.887-1.036-10.858-3.108-14.917
				c-2.072-4.057-5.112-7.14-9.116-9.247c-4.006-2.107-8.9-3.161-14.682-3.161h-19.853V91H288.123z"/>
			<path class="st0" d="M351.267,97.818c-5.922-3.187-10.501-7.697-13.74-13.531c-3.239-5.834-4.859-12.739-4.859-20.716V63.52
				c0-7.977,1.62-14.873,4.859-20.689c3.239-5.817,7.828-10.311,13.768-13.48c5.937-3.169,12.965-4.754,21.08-4.754
				c6.478,0,12.295,1.098,17.451,3.291c5.154,2.195,9.395,5.277,12.721,9.248c3.326,3.971,5.442,8.639,6.349,14.002L409,51.659
				h-12.174l-0.261-0.836c-1.045-3.344-2.656-6.173-4.833-8.49c-2.177-2.315-4.894-4.092-8.15-5.329
				c-3.257-1.235-6.992-1.854-11.207-1.854c-5.607,0-10.44,1.158-14.498,3.475s-7.192,5.59-9.404,9.822
				c-2.212,4.231-3.317,9.256-3.317,15.073v0.052c0,5.782,1.114,10.807,3.344,15.073c2.229,4.267,5.372,7.567,9.431,9.9
				c4.057,2.334,8.873,3.5,14.445,3.5c4.145,0,7.846-0.617,11.103-1.854c3.256-1.235,5.998-3.073,8.229-5.512
				c2.229-2.437,3.9-5.398,5.016-8.882l0.104-0.418H409l-0.104,0.522c-0.94,5.399-3.065,10.093-6.374,14.08
				c-3.31,3.989-7.541,7.089-12.695,9.3c-5.156,2.212-10.973,3.318-17.451,3.318C364.224,102.6,357.189,101.006,351.267,97.818z"/>
			<path class="st0" d="M432.781,91.315v-0.231l21.316-17.115c4.807-4.006,8.576-7.498,11.311-10.476
				c2.734-2.979,4.678-5.765,5.826-8.359c1.15-2.595,1.725-5.373,1.725-8.333v-0.105c0-4.389-1.176-8.245-3.527-11.572
				c-2.352-3.325-5.65-5.921-9.9-7.784s-9.23-2.796-14.941-2.796c-5.818,0-10.981,1.02-15.492,3.057
				c-4.511,2.038-8.09,4.895-10.736,8.568c-2.647,3.676-4.075,7.934-4.284,12.774v0.418h11.494l0.052-0.522
				c0.244-2.855,1.167-5.372,2.77-7.55c1.602-2.176,3.796-3.866,6.583-5.067c2.786-1.202,5.991-1.803,9.614-1.803
				c3.309,0,6.182,0.531,8.619,1.594s4.328,2.552,5.67,4.467c1.34,1.916,2.012,4.162,2.012,6.74v0.104
				c0,2.021-0.375,3.911-1.125,5.669c-0.748,1.76-2.115,3.701-4.1,5.825c-1.986,2.125-4.807,4.721-8.465,7.785l-32.81,26.541v8.15
				h60.135v-9.979H432.781z"/>
			<path class="st0" d="M513.519,25.903h17.555v50.521h11.338v9.927h-11.338v14.942h-11.65V86.351h-44.461V76.059L513.519,25.903z
				 M487.083,76.319v0.261h32.445V35.045h-0.367L487.083,76.319z"/>
		</g>
	</g>
	<g>
		<path class="st0" d="M61.746,24.661c-8.403-0.622-15.532,4.694-19.51,4.694c-4.035,0-10.257-4.56-16.854-4.435
			C16.72,25.046,8.736,29.96,4.27,37.716c-8.997,15.617-2.297,38.758,6.467,51.431c4.287,6.192,9.4,13.17,16.115,12.916
			c6.464-0.254,8.91-4.181,16.723-4.181c7.809,0,10.012,4.181,16.847,4.056c6.958-0.129,11.366-6.321,15.621-12.547
			c4.924-7.187,6.948-14.147,7.068-14.514c-0.154-0.058-13.562-5.203-13.696-20.651c-0.121-12.916,10.542-19.124,11.027-19.423
			C74.389,25.888,65.039,24.905,61.746,24.661z"/>
		<path class="st0" d="M56.561,16.295C60.13,11.982,62.531,5.975,61.87,0c-5.136,0.204-11.349,3.421-15.033,7.732
			c-3.299,3.818-6.197,9.934-5.41,15.787C47.152,23.961,52.995,20.611,56.561,16.295z"/>
	</g>
</g>
</svg>
